<svg xmlns="http://www.w3.org/2000/svg" width="64" height="64" viewBox="0 0 64 64" fill="none">
<circle cx="32" cy="32" r="32" fill="#6B420C"></circle>
<path d="M31.9082 55C30.8193 55 29.749 54.8088 28.7275 54.4324C23.8858 52.6466 19.9078 49.8329 17.2236 46.2954C14.3196 42.4682 12.984 37.8897 13.3614 33.0553L14.1445 22.0068C14.295 19.8831 15.5035 18.0113 17.3769 16.9999L28.9692 10.7425C29.8691 10.2566 30.8855 10 31.908 10C32.9305 10 33.9468 10.2569 34.8467 10.7425L46.4387 16.9999C48.3124 18.0113 49.5209 19.8831 49.6714 22.0068L50.4567 33.0844C50.8324 37.8944 49.4965 42.4679 46.5926 46.2952C43.9083 49.8327 39.9303 52.6461 35.0891 54.4317C34.0676 54.8088 32.9971 55 31.9082 55Z" fill="#FFB300"></path>
<path d="M31.9084 52.9582C31.0613 52.9582 30.229 52.8095 29.4343 52.5165C24.9589 50.8659 21.2992 48.2878 18.8508 45.0612C16.254 41.6388 15.06 37.5424 15.3979 33.2149L16.1819 22.1517C16.2828 20.7291 17.0922 19.4753 18.3475 18.7978L29.9398 12.5404C30.5426 12.215 31.2234 12.043 31.9084 12.043C32.5935 12.043 33.2743 12.215 33.8771 12.5404L45.4692 18.7978C46.7242 19.4753 47.5338 20.7291 47.6347 22.1517L48.4199 33.2293C48.7569 37.5424 47.5628 41.6388 44.9661 45.0612C42.5177 48.2878 38.8582 50.8659 34.383 52.5163C33.5879 52.8095 32.7554 52.9582 31.9084 52.9582Z" fill="white"></path>
<path d="M19.3177 20.5956L30.91 14.3381C31.5332 14.0019 32.2837 14.0019 32.9068 14.3381L44.4991 20.5956C45.1322 20.9373 45.5464 21.5791 45.5975 22.2967L46.3827 33.3743C47.0023 41.3067 41.882 47.574 33.6763 50.6007C32.5354 51.0215 31.2817 51.0215 30.1409 50.6007C21.9348 47.5743 16.8148 41.3069 17.4344 33.3743L18.2196 22.2967C18.2704 21.5791 18.6847 20.9373 19.3177 20.5956Z" fill="url(#paint0_linear_1339_111746)"></path>
<path d="M31.9083 49.859C31.4281 49.859 30.9562 49.7746 30.5055 49.6085C22.4212 46.6268 17.9276 40.5877 18.4848 33.4531L19.2705 22.368C19.2961 22.0083 19.5007 21.6912 19.8183 21.5196L31.4104 15.2624C31.5628 15.1802 31.7351 15.1367 31.9083 15.1367C32.0815 15.1367 32.2537 15.1802 32.4062 15.2624L43.9985 21.5198C44.3158 21.6912 44.5205 22.0083 44.546 22.368L45.3312 33.4456C45.8889 40.5875 41.3953 46.6268 33.3112 49.6083C32.8606 49.7746 32.3884 49.859 31.9083 49.859Z" fill="url(#paint1_linear_1339_111746)"></path>
<path d="M38.8764 33.725L37.6251 33.0075V31.9925L38.8764 31.275C39.2775 31.0426 39.5701 30.6606 39.6898 30.2127C39.8096 29.7649 39.7468 29.2878 39.5151 28.8862L38.6401 27.3638C38.4078 26.9626 38.0257 26.67 37.5779 26.5503C37.13 26.4305 36.6529 26.4934 36.2514 26.725L35.2189 27.32L35.0001 27.4513L34.1251 26.9438V25.5C34.1251 25.0359 33.9407 24.5908 33.6125 24.2626C33.2844 23.9344 32.8392 23.75 32.3751 23.75H30.6251C30.161 23.75 29.7159 23.9344 29.3877 24.2626C29.0595 24.5908 28.8751 25.0359 28.8751 25.5V26.9438L28.6564 27.0662L28.0001 27.4513L27.7814 27.32L26.7489 26.725C26.3473 26.4934 25.8702 26.4305 25.4224 26.5503C24.9745 26.67 24.5925 26.9626 24.3601 27.3638L23.4851 28.8862C23.2535 29.2878 23.1906 29.7649 23.3104 30.2127C23.4301 30.6606 23.7227 31.0426 24.1239 31.275L25.3751 31.9925V33.0075L24.1239 33.725C23.7227 33.9574 23.4301 34.3394 23.3104 34.7873C23.1906 35.2351 23.2535 35.7122 23.4851 36.1137L24.3601 37.6363C24.5925 38.0374 24.9745 38.33 25.4224 38.4497C25.8702 38.5695 26.3473 38.5066 26.7489 38.275L28.0001 37.5488L28.8751 38.0563V39.5C28.8751 39.9641 29.0595 40.4092 29.3877 40.7374C29.7159 41.0656 30.161 41.25 30.6251 41.25H32.3751C32.8392 41.25 33.2844 41.0656 33.6125 40.7374C33.9407 40.4092 34.1251 39.9641 34.1251 39.5V38.0563L35.0001 37.5488L36.2514 38.275C36.6529 38.5066 37.13 38.5695 37.5779 38.4497C38.0257 38.33 38.4078 38.0374 38.6401 37.6363L39.5151 36.1137C39.7468 35.7122 39.8096 35.2351 39.6898 34.7873C39.5701 34.3394 39.2775 33.9574 38.8764 33.725V33.725ZM31.5001 35.125C30.9809 35.125 30.4734 34.971 30.0417 34.6826C29.6101 34.3942 29.2736 33.9842 29.0749 33.5045C28.8762 33.0249 28.8243 32.4971 28.9255 31.9879C29.0268 31.4787 29.2768 31.011 29.644 30.6438C30.0111 30.2767 30.4788 30.0267 30.988 29.9254C31.4972 29.8242 32.025 29.8761 32.5047 30.0748C32.9843 30.2735 33.3943 30.6099 33.6827 31.0416C33.9712 31.4733 34.1251 31.9808 34.1251 32.5C34.1251 33.1962 33.8485 33.8639 33.3563 34.3562C32.864 34.8484 32.1963 35.125 31.5001 35.125Z" fill="#491400"></path>
<defs>
<linearGradient id="paint0_linear_1339_111746" x1="23.0379" y1="18.7749" x2="42.6455" y2="46.28" gradientUnits="userSpaceOnUse">
<stop stop-color="#FFB300"></stop>
<stop offset="0.1628" stop-color="#FDA60A"></stop>
<stop offset="0.2847" stop-color="#FC9914"></stop>
<stop offset="0.3445" stop-color="#FCA01A"></stop>
<stop offset="0.4309" stop-color="#FCB32B"></stop>
<stop offset="0.5173" stop-color="#FDCD41"></stop>
<stop offset="0.554" stop-color="#FDC034"></stop>
<stop offset="0.652" stop-color="#FCA418"></stop>
<stop offset="0.7372" stop-color="#FB9206"></stop>
<stop offset="0.7995" stop-color="#FB8C00"></stop>
<stop offset="0.8426" stop-color="#FC9700"></stop>
<stop offset="0.9321" stop-color="#FDA700"></stop>
<stop offset="1" stop-color="#FFB300"></stop>
</linearGradient>
<linearGradient id="paint1_linear_1339_111746" x1="23.6284" y1="19.5914" x2="42.0084" y2="45.3743" gradientUnits="userSpaceOnUse">
<stop offset="0.0272" stop-color="#FFB300"></stop>
<stop offset="0.5173" stop-color="#FFE082"></stop>
<stop offset="1" stop-color="#FFB300"></stop>
</linearGradient>
</defs>
</svg>