<svg xmlns="http://www.w3.org/2000/svg" width="64" height="64" viewBox="0 0 64 64" fill="none">
<circle cx="32" cy="32" r="32" fill="#6B420C"></circle>
<path d="M31.9082 55C30.8193 55 29.749 54.8088 28.7275 54.4324C23.8858 52.6466 19.9078 49.8329 17.2236 46.2954C14.3196 42.4682 12.984 37.8897 13.3614 33.0553L14.1445 22.0068C14.295 19.8831 15.5035 18.0113 17.3769 16.9999L28.9692 10.7425C29.8691 10.2566 30.8855 10 31.908 10C32.9305 10 33.9468 10.2569 34.8467 10.7425L46.4387 16.9999C48.3124 18.0113 49.5209 19.8831 49.6714 22.0068L50.4567 33.0844C50.8324 37.8944 49.4965 42.4679 46.5926 46.2952C43.9083 49.8327 39.9303 52.6461 35.0891 54.4317C34.0676 54.8088 32.9971 55 31.9082 55Z" fill="#FFB300"></path>
<path d="M31.9084 52.9582C31.0613 52.9582 30.229 52.8095 29.4343 52.5165C24.9589 50.8659 21.2992 48.2878 18.8508 45.0612C16.254 41.6388 15.06 37.5424 15.3979 33.2149L16.1819 22.1517C16.2828 20.7291 17.0922 19.4753 18.3475 18.7978L29.9398 12.5404C30.5426 12.215 31.2234 12.043 31.9084 12.043C32.5935 12.043 33.2743 12.215 33.8771 12.5404L45.4692 18.7978C46.7242 19.4753 47.5338 20.7291 47.6347 22.1517L48.4199 33.2293C48.7569 37.5424 47.5628 41.6388 44.9661 45.0612C42.5177 48.2878 38.8582 50.8659 34.383 52.5163C33.5879 52.8095 32.7554 52.9582 31.9084 52.9582Z" fill="white"></path>
<path d="M19.3177 20.5956L30.91 14.3381C31.5332 14.0019 32.2837 14.0019 32.9068 14.3381L44.4991 20.5956C45.1322 20.9373 45.5464 21.5791 45.5975 22.2967L46.3827 33.3743C47.0023 41.3067 41.882 47.574 33.6763 50.6007C32.5354 51.0215 31.2817 51.0215 30.1409 50.6007C21.9348 47.5743 16.8148 41.3069 17.4344 33.3743L18.2196 22.2967C18.2704 21.5791 18.6847 20.9373 19.3177 20.5956Z" fill="url(#paint0_linear_1339_111728)"></path>
<path d="M31.9083 49.859C31.4281 49.859 30.9562 49.7746 30.5055 49.6085C22.4212 46.6268 17.9276 40.5877 18.4848 33.4531L19.2705 22.368C19.2961 22.0083 19.5007 21.6912 19.8183 21.5196L31.4104 15.2624C31.5628 15.1802 31.7351 15.1367 31.9083 15.1367C32.0815 15.1367 32.2537 15.1802 32.4062 15.2624L43.9985 21.5198C44.3158 21.6912 44.5205 22.0083 44.546 22.368L45.3312 33.4456C45.8889 40.5875 41.3953 46.6268 33.3112 49.6083C32.8606 49.7746 32.3884 49.859 31.9083 49.859Z" fill="url(#paint1_linear_1339_111728)"></path>
<path d="M38.9376 29.5341C39.1379 29.3584 39.2796 29.1256 39.3435 28.8669C39.4075 28.6083 39.3906 28.3363 39.2953 28.0875C39.2 27.8388 39.0308 27.6251 38.8104 27.4755C38.59 27.3258 38.329 27.2472 38.0626 27.2503C37.9108 27.2538 37.7603 27.2803 37.6164 27.3291L32.7689 24.7478C32.7013 24.4621 32.5393 24.2076 32.309 24.0254C32.0788 23.8432 31.7937 23.7441 31.5001 23.7441C31.2065 23.7441 30.9215 23.8432 30.6913 24.0254C30.461 24.2076 30.299 24.4621 30.2314 24.7478L25.3751 27.3291C25.234 27.2812 25.0866 27.2546 24.9376 27.2503C24.6712 27.2472 24.4103 27.3258 24.1899 27.4755C23.9695 27.6251 23.8003 27.8388 23.705 28.0875C23.6096 28.3363 23.5928 28.6083 23.6568 28.8669C23.7207 29.1256 23.8624 29.3584 24.0626 29.5341V35.4666C23.8624 35.6423 23.7207 35.8751 23.6568 36.1337C23.5928 36.3923 23.6096 36.6643 23.705 36.9131C23.8003 37.1619 23.9695 37.3755 24.1899 37.5252C24.4103 37.6749 24.6712 37.7534 24.9376 37.7503C25.0866 37.746 25.234 37.7195 25.3751 37.6716L30.2226 40.2528C30.2902 40.5386 30.4523 40.7931 30.6825 40.9753C30.9128 41.1574 31.1978 41.2565 31.4914 41.2565C31.785 41.2565 32.07 41.1574 32.3003 40.9753C32.5305 40.7931 32.6926 40.5386 32.7601 40.2528L37.6251 37.6716C37.769 37.7203 37.9195 37.7469 38.0714 37.7503C38.3378 37.7534 38.5987 37.6749 38.8191 37.5252C39.0395 37.3755 39.2088 37.1619 39.3041 36.9131C39.3994 36.6643 39.4162 36.3923 39.3523 36.1337C39.2883 35.8751 39.1467 35.6423 38.9464 35.4666L38.9376 29.5341ZM31.5001 29.0003C31.7597 29.0003 32.0135 29.0773 32.2293 29.2215C32.4452 29.3657 32.6134 29.5707 32.7127 29.8106C32.8121 30.0504 32.8381 30.3143 32.7874 30.5689C32.7368 30.8235 32.6118 31.0573 32.4282 31.2409C32.2447 31.4245 32.0108 31.5495 31.7562 31.6001C31.5016 31.6508 31.2377 31.6248 30.9979 31.5254C30.758 31.4261 30.5531 31.2579 30.4088 31.042C30.2646 30.8262 30.1876 30.5724 30.1876 30.3128C30.1876 29.9647 30.3259 29.6309 30.5721 29.3848C30.8182 29.1386 31.152 29.0003 31.5001 29.0003ZM33.2501 36.0003H29.7501C29.5181 36.0003 29.2955 35.9081 29.1314 35.744C28.9673 35.58 28.8751 35.3574 28.8751 35.1253C28.8751 34.4291 29.1517 33.7615 29.644 33.2692C30.1363 32.7769 30.8039 32.5003 31.5001 32.5003C32.1963 32.5003 32.864 32.7769 33.3563 33.2692C33.8486 33.7615 34.1251 34.4291 34.1251 35.1253C34.1251 35.3574 34.033 35.58 33.8689 35.744C33.7048 35.9081 33.4822 36.0003 33.2501 36.0003Z" fill="#491400"></path>
<defs>
<linearGradient id="paint0_linear_1339_111728" x1="23.0379" y1="18.7749" x2="42.6455" y2="46.28" gradientUnits="userSpaceOnUse">
<stop stop-color="#FFB300"></stop>
<stop offset="0.1628" stop-color="#FDA60A"></stop>
<stop offset="0.2847" stop-color="#FC9914"></stop>
<stop offset="0.3445" stop-color="#FCA01A"></stop>
<stop offset="0.4309" stop-color="#FCB32B"></stop>
<stop offset="0.5173" stop-color="#FDCD41"></stop>
<stop offset="0.554" stop-color="#FDC034"></stop>
<stop offset="0.652" stop-color="#FCA418"></stop>
<stop offset="0.7372" stop-color="#FB9206"></stop>
<stop offset="0.7995" stop-color="#FB8C00"></stop>
<stop offset="0.8426" stop-color="#FC9700"></stop>
<stop offset="0.9321" stop-color="#FDA700"></stop>
<stop offset="1" stop-color="#FFB300"></stop>
</linearGradient>
<linearGradient id="paint1_linear_1339_111728" x1="23.6284" y1="19.5914" x2="42.0084" y2="45.3743" gradientUnits="userSpaceOnUse">
<stop offset="0.0272" stop-color="#FFB300"></stop>
<stop offset="0.5173" stop-color="#FFE082"></stop>
<stop offset="1" stop-color="#FFB300"></stop>
</linearGradient>
</defs>
</svg>